<svg width="75" height="95" viewBox="0 0 75 95" fill="none" xmlns="http://www.w3.org/2000/svg">
<path d="M67.5938 87.625H46.921C50.3937 84.5242 53.6687 81.2088 56.7266 77.6982C68.1998 64.503 74.2812 50.593 74.2812 37.4688C74.2812 27.7138 70.4061 18.3583 63.5083 11.4605C56.6105 4.56266 47.255 0.6875 37.5 0.6875C27.745 0.6875 18.3896 4.56266 11.4917 11.4605C4.59391 18.3583 0.71875 27.7138 0.71875 37.4688C0.71875 50.593 6.78348 64.503 18.2734 77.6982C21.3313 81.2088 24.6063 84.5242 28.079 87.625H7.40625C6.51943 87.625 5.66894 87.9773 5.04186 88.6044C4.41479 89.2314 4.0625 90.0819 4.0625 90.9688C4.0625 91.8556 4.41479 92.7061 5.04186 93.3331C5.66894 93.9602 6.51943 94.3125 7.40625 94.3125H67.5938C68.4806 94.3125 69.3311 93.9602 69.9581 93.3331C70.5852 92.7061 70.9375 91.8556 70.9375 90.9688C70.9375 90.0819 70.5852 89.2314 69.9581 88.6044C69.3311 87.9773 68.4806 87.625 67.5938 87.625ZM7.40625 37.4688C7.40625 29.4874 10.5768 21.8329 16.2205 16.1893C21.8642 10.5456 29.5186 7.375 37.5 7.375C45.4814 7.375 53.1358 10.5456 58.7795 16.1893C64.4232 21.8329 67.5938 29.4874 67.5938 37.4688C67.5938 61.3891 44.409 81.3555 37.5 86.7891C30.591 81.3555 7.40625 61.3891 7.40625 37.4688ZM54.2188 37.4688C54.2188 34.1621 53.2382 30.9297 51.4011 28.1803C49.5641 25.4309 46.9529 23.288 43.898 22.0226C40.843 20.7572 37.4815 20.4261 34.2383 21.0712C30.9952 21.7163 28.0162 23.3086 25.6781 25.6468C23.3399 27.985 21.7476 30.964 21.1025 34.2071C20.4574 37.4502 20.7885 40.8118 22.0539 43.8667C23.3193 46.9217 25.4622 49.5328 28.2116 51.3699C30.9609 53.207 34.1933 54.1875 37.5 54.1875C41.9341 54.1875 46.1866 52.4261 49.3219 49.2907C52.4573 46.1553 54.2188 41.9028 54.2188 37.4688ZM27.4688 37.4688C27.4688 35.4848 28.0571 33.5453 29.1593 31.8957C30.2616 30.2461 31.8282 28.9603 33.6612 28.2011C35.4942 27.4418 37.5111 27.2432 39.457 27.6302C41.4029 28.0173 43.1903 28.9727 44.5932 30.3756C45.9961 31.7785 46.9514 33.5659 47.3385 35.5117C47.7256 37.4576 47.5269 39.4746 46.7677 41.3075C46.0084 43.1405 44.7227 44.7072 43.0731 45.8094C41.4234 46.9117 39.484 47.5 37.5 47.5C34.8395 47.5 32.2881 46.4431 30.4068 44.5619C28.5256 42.6807 27.4688 40.1292 27.4688 37.4688Z" fill="white"/>
</svg>
