<svg width="101" height="81" viewBox="0 0 101 81" fill="none" xmlns="http://www.w3.org/2000/svg">
<path d="M96.2707 48.9587C95.0265 48.0013 93.5782 47.3438 92.0385 47.0372C90.4988 46.7305 88.9092 46.7831 87.3931 47.1907L69.9053 51.2115C70.3121 49.4928 70.3247 47.7043 69.942 45.98C69.5594 44.2558 68.7914 42.6405 67.6956 41.2552C66.5999 39.87 65.2049 38.7507 63.615 37.9813C62.0252 37.2119 60.2818 36.8123 58.5156 36.8125H37.5921C35.835 36.8081 34.0944 37.1519 32.4709 37.8241C30.8474 38.4964 29.3732 39.4836 28.1335 40.7289L18.679 50.1875H6.6875C4.91386 50.1875 3.21287 50.8921 1.95872 52.1462C0.704574 53.4004 0 55.1014 0 56.875L0 73.5938C0 75.3674 0.704574 77.0684 1.95872 78.3225C3.21287 79.5767 4.91386 80.2813 6.6875 80.2813H50.1562C50.4296 80.2814 50.702 80.2477 50.9671 80.1809L77.7171 73.4934C77.8876 73.4529 78.0541 73.3969 78.2145 73.3263L94.4609 66.4131L94.6448 66.3295C96.2062 65.5492 97.5433 64.3844 98.5301 62.9446C99.5169 61.5048 100.121 59.8375 100.285 58.0998C100.45 56.362 100.169 54.6111 99.4694 53.0118C98.77 51.4126 97.6749 50.0177 96.2875 48.9587H96.2707ZM6.6875 56.875H16.7188V73.5938H6.6875V56.875ZM91.7149 60.3065L75.8321 67.0693L49.7383 73.5938H23.4062V54.9147L32.8649 45.4603C33.4836 44.8366 34.2202 44.3421 35.0317 44.0056C35.8432 43.6691 36.7136 43.4972 37.5921 43.5H58.5156C59.8459 43.5 61.1216 44.0284 62.0622 44.9691C63.0028 45.9097 63.5312 47.1854 63.5312 48.5156C63.5312 49.8459 63.0028 51.1216 62.0622 52.0622C61.1216 53.0028 59.8459 53.5313 58.5156 53.5313H46.8125C45.9257 53.5313 45.0752 53.8835 44.4481 54.5106C43.821 55.1377 43.4688 55.9882 43.4688 56.875C43.4688 57.7618 43.821 58.6123 44.4481 59.2394C45.0752 59.8665 45.9257 60.2188 46.8125 60.2188H60.1875C60.4392 60.218 60.69 60.19 60.9357 60.1352L88.9396 53.6943L89.0691 53.6608C89.924 53.4235 90.8364 53.5107 91.6309 53.9057C92.4253 54.3006 93.0456 54.9755 93.3724 55.8003C93.6992 56.6251 93.7095 57.5416 93.4012 58.3735C93.0928 59.2054 92.4878 59.8939 91.7023 60.3065H91.7149ZM68.5469 30.125C69.373 30.1259 70.1978 30.0588 71.0129 29.9244C71.9297 32.6476 73.6071 35.0514 75.8468 36.8516C78.0865 38.6517 80.7948 39.7729 83.6515 40.0826C86.5082 40.3923 89.3938 39.8776 91.9673 38.5993C94.5407 37.3209 96.6943 35.3325 98.1735 32.869C99.6526 30.4055 100.395 27.57 100.314 24.6977C100.233 21.8254 99.3308 19.0364 97.7147 16.6605C96.0986 14.2847 93.836 12.4212 91.1943 11.2905C88.5527 10.1598 85.6426 9.80906 82.808 10.2799C81.9252 7.65603 80.3356 5.32662 78.2143 3.54795C76.093 1.76928 73.522 0.610316 70.7845 0.198597C68.0469 -0.213123 65.2488 0.138364 62.6982 1.21438C60.1475 2.29039 57.9431 4.04921 56.3276 6.29729C54.7121 8.54537 53.7481 11.1956 53.5417 13.9562C53.3353 16.7168 53.8944 19.4809 55.1577 21.9442C56.4209 24.4076 58.3392 26.4746 60.7015 27.918C63.0638 29.3614 65.7785 30.125 68.5469 30.125ZM93.625 25.1094C93.625 26.7627 93.1347 28.3789 92.2162 29.7536C91.2977 31.1283 89.9921 32.1997 88.4646 32.8324C86.9371 33.4651 85.2563 33.6307 83.6348 33.3081C82.0132 32.9856 80.5237 32.1894 79.3547 31.0204C78.1856 29.8513 77.3894 28.3618 77.0669 26.7402C76.7443 25.1187 76.9099 23.4379 77.5426 21.9104C78.1753 20.3829 79.2467 19.0774 80.6214 18.1588C81.9961 17.2403 83.6123 16.75 85.2656 16.75C87.4827 16.75 89.6089 17.6307 91.1766 19.1984C92.7443 20.7661 93.625 22.8923 93.625 25.1094ZM68.5469 6.71876C70.3705 6.71967 72.1438 7.31689 73.5964 8.41938C75.049 9.52187 76.1013 11.0691 76.5928 12.8253C74.8802 14.0303 73.438 15.5794 72.3585 17.3737C71.2789 19.1679 70.5857 21.1678 70.3232 23.2452C69.7395 23.3713 69.1441 23.4357 68.5469 23.4375C66.3298 23.4375 64.2036 22.5568 62.6359 20.9891C61.0682 19.4214 60.1875 17.2952 60.1875 15.0781C60.1875 12.8611 61.0682 10.7348 62.6359 9.16716C64.2036 7.59947 66.3298 6.71876 68.5469 6.71876Z" fill="white"/>
</svg>
